<svg width="11" height="11" viewBox="0 0 11 11" fill="none" xmlns="http://www.w3.org/2000/svg">
<g clip-path="url(#clip0_28_25)">
<path d="M7.21875 7.5625C9.30703 7.5625 11 5.86953 11 3.78125C11 1.69297 9.30703 0 7.21875 0C5.13047 0 3.4375 1.69297 3.4375 3.78125C3.4375 4.18301 3.4998 4.57188 3.61582 4.93496L0.150391 8.40039C0.0537109 8.49707 0 8.62813 0 8.76562V10.4844C0 10.7701 0.229883 11 0.515625 11H2.23438C2.52012 11 2.75 10.7701 2.75 10.4844V9.625H3.60938C3.89512 9.625 4.125 9.39512 4.125 9.10938V8.25H4.98438C5.12187 8.25 5.25293 8.19629 5.34961 8.09961L6.06504 7.38418C6.42812 7.5002 6.81699 7.5625 7.21875 7.5625ZM8.07812 3.78125C7.60332 3.78125 7.21875 3.39668 7.21875 2.92188C7.21875 2.44707 7.60332 2.0625 8.07812 2.0625C8.55293 2.0625 8.9375 2.44707 8.9375 2.92188C8.9375 3.39668 8.55293 3.78125 8.07812 3.78125Z" fill="black" fill-opacity="0.5"/>
</g>
<defs>
<clipPath id="clip0_28_25">
<rect width="11" height="11" fill="white"/>
</clipPath>
</defs>
</svg>
