<svg width="11" height="11" viewBox="0 0 11 11" fill="none" xmlns="http://www.w3.org/2000/svg">
<g clip-path="url(#clip0_25_59)">
<path d="M11 2.0625H0C0 1.3041 0.54809 0.6875 1.22222 0.6875H9.77778C10.4519 0.6875 11 1.3041 11 2.0625ZM11 2.75V8.9375C11 9.6959 10.4519 10.3125 9.77778 10.3125H1.22222C0.54809 10.3125 0 9.6959 0 8.9375V2.75H11ZM9.77778 8.70762C9.77778 8.07383 9.32135 7.5625 8.7599 7.5625H6.51788C5.95451 7.5625 5.5 8.07598 5.5 8.70762C5.5 8.83437 5.59167 8.9375 5.70434 8.9375H9.57344C9.68611 8.9375 9.77778 8.83437 9.77778 8.70762ZM7.63889 6.875C8.31302 6.875 8.86111 6.2584 8.86111 5.5C8.86111 4.7416 8.31302 4.125 7.63889 4.125C6.96476 4.125 6.41667 4.7416 6.41667 5.5C6.41667 6.2584 6.96476 6.875 7.63889 6.875ZM4.27778 4.46875C4.27778 4.27969 4.14028 4.125 3.97222 4.125H1.52778C1.35972 4.125 1.22222 4.27969 1.22222 4.46875C1.22222 4.65781 1.35972 4.8125 1.52778 4.8125H3.97222C4.14028 4.8125 4.27778 4.65781 4.27778 4.46875ZM4.27778 5.84375C4.27778 5.65469 4.14028 5.5 3.97222 5.5H1.52778C1.35972 5.5 1.22222 5.65469 1.22222 5.84375C1.22222 6.03281 1.35972 6.1875 1.52778 6.1875H3.97222C4.14028 6.1875 4.27778 6.03281 4.27778 5.84375ZM4.27778 7.21875C4.27778 7.02969 4.14028 6.875 3.97222 6.875H1.52778C1.35972 6.875 1.22222 7.02969 1.22222 7.21875C1.22222 7.40781 1.35972 7.5625 1.52778 7.5625H3.97222C4.14028 7.5625 4.27778 7.40781 4.27778 7.21875Z" fill="black" fill-opacity="0.5"/>
</g>
<defs>
<clipPath id="clip0_25_59">
<rect width="11" height="11" fill="white" transform="matrix(-1 0 0 1 11 0)"/>
</clipPath>
</defs>
</svg>
