<svg width="22" height="25" viewBox="0 0 22 25" fill="none" xmlns="http://www.w3.org/2000/svg">
<g clip-path="url(#clip0_25_38)">
<path d="M0.4616 11.3965C-0.152239 12.0068 -0.152239 12.998 0.4616 13.6084L8.31874 21.4209C8.93258 22.0312 9.92946 22.0312 10.5433 21.4209C11.1571 20.8105 11.1571 19.8193 10.5433 19.209L5.36249 14.0625H20.4286C21.2978 14.0625 22 13.3643 22 12.5C22 11.6357 21.2978 10.9375 20.4286 10.9375H5.3674L10.5384 5.79102C11.1522 5.18066 11.1522 4.18945 10.5384 3.5791C9.92455 2.96875 8.92767 2.96875 8.31383 3.5791L0.45669 11.3916L0.4616 11.3965Z" fill="black"/>
</g>
<defs>
<clipPath id="clip0_25_38">
<rect width="22" height="25" fill="white"/>
</clipPath>
</defs>
</svg>
