<svg width="137" height="360" viewBox="0 0 137 360" fill="none" xmlns="http://www.w3.org/2000/svg">
<path d="M9.99901 335C9.20885 335 8.57046 335.642 8.57046 336.438V337.3C5.31158 337.965 2.85625 340.867 2.85625 344.344V345.188C2.85625 347.3 2.08394 349.339 0.691101 350.92L0.360748 351.293C-0.0142472 351.715 -0.103532 352.322 0.124144 352.838C0.351819 353.355 0.865206 353.688 1.4277 353.688H18.5703C19.1328 353.688 19.6417 353.355 19.8739 352.838C20.106 352.322 20.0123 351.715 19.6373 351.293L19.3069 350.92C17.9141 349.339 17.1418 347.304 17.1418 345.188V344.344C17.1418 340.867 14.6865 337.965 11.4276 337.3V336.438C11.4276 335.642 10.7892 335 9.99901 335ZM12.0213 357.16C12.557 356.621 12.8561 355.889 12.8561 355.125H9.99901H7.14191C7.14191 355.889 7.44101 356.621 7.97672 357.16C8.51243 357.699 9.2401 358 9.99901 358C10.7579 358 11.4856 357.699 12.0213 357.16Z" fill="black"/>
<path d="M125.999 337C125.209 337 124.57 337.642 124.57 338.438V339.3C121.312 339.965 118.856 342.867 118.856 346.344V347.188C118.856 349.3 118.084 351.339 116.691 352.92L116.361 353.293C115.986 353.715 115.896 354.322 116.124 354.838C116.352 355.355 116.865 355.688 117.428 355.688H134.57C135.133 355.688 135.642 355.355 135.874 354.838C136.106 354.322 136.012 353.715 135.637 353.293L135.307 352.92C133.914 351.339 133.142 349.304 133.142 347.188V346.344C133.142 342.867 130.686 339.965 127.428 339.3V338.438C127.428 337.642 126.789 337 125.999 337ZM128.021 359.16C128.557 358.621 128.856 357.889 128.856 357.125H125.999H123.142C123.142 357.889 123.441 358.621 123.977 359.16C124.512 359.699 125.24 360 125.999 360C126.758 360 127.486 359.699 128.021 359.16Z" fill="black"/>
<path d="M10.999 254C10.2088 254 9.57046 254.642 9.57046 255.438V256.3C6.31158 256.965 3.85625 259.867 3.85625 263.344V264.188C3.85625 266.3 3.08394 268.339 1.6911 269.92L1.36075 270.293C0.985753 270.715 0.896468 271.322 1.12414 271.838C1.35182 272.355 1.86521 272.688 2.4277 272.688H19.5703C20.1328 272.688 20.6417 272.355 20.8739 271.838C21.106 271.322 21.0123 270.715 20.6373 270.293L20.3069 269.92C18.9141 268.339 18.1418 266.304 18.1418 264.188V263.344C18.1418 259.867 15.6865 256.965 12.4276 256.3V255.438C12.4276 254.642 11.7892 254 10.999 254ZM13.0213 276.16C13.557 275.621 13.8561 274.889 13.8561 274.125H10.999H8.14191C8.14191 274.889 8.44101 275.621 8.97672 276.16C9.51243 276.699 10.2401 277 10.999 277C11.7579 277 12.4856 276.699 13.0213 276.16Z" fill="black"/>
<path d="M125.999 252C125.209 252 124.57 252.642 124.57 253.438V254.3C121.312 254.965 118.856 257.867 118.856 261.344V262.188C118.856 264.3 118.084 266.339 116.691 267.92L116.361 268.293C115.986 268.715 115.896 269.322 116.124 269.838C116.352 270.355 116.865 270.688 117.428 270.688H134.57C135.133 270.688 135.642 270.355 135.874 269.838C136.106 269.322 136.012 268.715 135.637 268.293L135.307 267.92C133.914 266.339 133.142 264.304 133.142 262.188V261.344C133.142 257.867 130.686 254.965 127.428 254.3V253.438C127.428 252.642 126.789 252 125.999 252ZM128.021 274.16C128.557 273.621 128.856 272.889 128.856 272.125H125.999H123.142C123.142 272.889 123.441 273.621 123.977 274.16C124.512 274.699 125.24 275 125.999 275C126.758 275 127.486 274.699 128.021 274.16Z" fill="black"/>
<path d="M126.999 168C126.209 168 125.57 168.642 125.57 169.438V170.3C122.312 170.965 119.856 173.867 119.856 177.344V178.188C119.856 180.3 119.084 182.339 117.691 183.92L117.361 184.293C116.986 184.715 116.896 185.322 117.124 185.838C117.352 186.355 117.865 186.688 118.428 186.688H135.57C136.133 186.688 136.642 186.355 136.874 185.838C137.106 185.322 137.012 184.715 136.637 184.293L136.307 183.92C134.914 182.339 134.142 180.304 134.142 178.188V177.344C134.142 173.867 131.686 170.965 128.428 170.3V169.438C128.428 168.642 127.789 168 126.999 168ZM129.021 190.16C129.557 189.621 129.856 188.889 129.856 188.125H126.999H124.142C124.142 188.889 124.441 189.621 124.977 190.16C125.512 190.699 126.24 191 126.999 191C127.758 191 128.486 190.699 129.021 190.16Z" fill="black"/>
<path d="M10.999 168C10.2088 168 9.57046 168.642 9.57046 169.438V170.3C6.31158 170.965 3.85625 173.867 3.85625 177.344V178.188C3.85625 180.3 3.08394 182.339 1.6911 183.92L1.36075 184.293C0.985753 184.715 0.896468 185.322 1.12414 185.838C1.35182 186.355 1.86521 186.688 2.4277 186.688H19.5703C20.1328 186.688 20.6417 186.355 20.8739 185.838C21.106 185.322 21.0123 184.715 20.6373 184.293L20.3069 183.92C18.9141 182.339 18.1418 180.304 18.1418 178.188V177.344C18.1418 173.867 15.6865 170.965 12.4276 170.3V169.438C12.4276 168.642 11.7892 168 10.999 168ZM13.0213 190.16C13.557 189.621 13.8561 188.889 13.8561 188.125H10.999H8.14191C8.14191 188.889 8.44101 189.621 8.97672 190.16C9.51243 190.699 10.2401 191 10.999 191C11.7579 191 12.4856 190.699 13.0213 190.16Z" fill="black"/>
<path d="M9.99901 85C9.20885 85 8.57046 85.6424 8.57046 86.4375V87.3C5.31158 87.9648 2.85625 90.8668 2.85625 94.3438V95.1883C2.85625 97.2996 2.08394 99.3391 0.691101 100.92L0.360748 101.293C-0.0142472 101.715 -0.103532 102.322 0.124144 102.838C0.351819 103.355 0.865206 103.688 1.4277 103.688H18.5703C19.1328 103.688 19.6417 103.355 19.8739 102.838C20.106 102.322 20.0123 101.715 19.6373 101.293L19.3069 100.92C17.9141 99.3391 17.1418 97.3041 17.1418 95.1883V94.3438C17.1418 90.8668 14.6865 87.9648 11.4276 87.3V86.4375C11.4276 85.6424 10.7892 85 9.99901 85ZM12.0213 107.16C12.557 106.621 12.8561 105.889 12.8561 105.125H9.99901H7.14191C7.14191 105.889 7.44101 106.621 7.97672 107.16C8.51243 107.699 9.2401 108 9.99901 108C10.7579 108 11.4856 107.699 12.0213 107.16Z" fill="black"/>
<path d="M126.999 83C126.209 83 125.57 83.6424 125.57 84.4375V85.3C122.312 85.9648 119.856 88.8668 119.856 92.3438V93.1883C119.856 95.2996 119.084 97.3391 117.691 98.9203L117.361 99.2932C116.986 99.7154 116.896 100.322 117.124 100.838C117.352 101.355 117.865 101.688 118.428 101.688H135.57C136.133 101.688 136.642 101.355 136.874 100.838C137.106 100.322 137.012 99.7154 136.637 99.2932L136.307 98.9203C134.914 97.3391 134.142 95.3041 134.142 93.1883V92.3438C134.142 88.8668 131.686 85.9648 128.428 85.3V84.4375C128.428 83.6424 127.789 83 126.999 83ZM129.021 105.16C129.557 104.621 129.856 103.889 129.856 103.125H126.999H124.142C124.142 103.889 124.441 104.621 124.977 105.16C125.512 105.699 126.24 106 126.999 106C127.758 106 128.486 105.699 129.021 105.16Z" fill="black"/>
<path d="M126.999 1C126.209 1 125.57 1.64238 125.57 2.4375V3.3C122.312 3.96484 119.856 6.8668 119.856 10.3438V11.1883C119.856 13.2996 119.084 15.3391 117.691 16.9203L117.361 17.2932C116.986 17.7154 116.896 18.3219 117.124 18.8385C117.352 19.3551 117.865 19.6875 118.428 19.6875H135.57C136.133 19.6875 136.642 19.3551 136.874 18.8385C137.106 18.3219 137.012 17.7154 136.637 17.2932L136.307 16.9203C134.914 15.3391 134.142 13.3041 134.142 11.1883V10.3438C134.142 6.8668 131.686 3.96484 128.428 3.3V2.4375C128.428 1.64238 127.789 1 126.999 1ZM129.021 23.16C129.557 22.6209 129.856 21.8887 129.856 21.125H126.999H124.142C124.142 21.8887 124.441 22.6209 124.977 23.16C125.512 23.699 126.24 24 126.999 24C127.758 24 128.486 23.699 129.021 23.16Z" fill="black"/>
<path d="M11.999 0C11.2088 0 10.5705 0.642383 10.5705 1.4375V2.3C7.31158 2.96484 4.85625 5.8668 4.85625 9.34375V10.1883C4.85625 12.2996 4.08394 14.3391 2.6911 15.9203L2.36075 16.2932C1.98575 16.7154 1.89647 17.3219 2.12414 17.8385C2.35182 18.3551 2.86521 18.6875 3.4277 18.6875H20.5703C21.1328 18.6875 21.6417 18.3551 21.8739 17.8385C22.106 17.3219 22.0123 16.7154 21.6373 16.2932L21.3069 15.9203C19.9141 14.3391 19.1418 12.3041 19.1418 10.1883V9.34375C19.1418 5.8668 16.6865 2.96484 13.4276 2.3V1.4375C13.4276 0.642383 12.7892 0 11.999 0ZM14.0213 22.16C14.557 21.6209 14.8561 20.8887 14.8561 20.125H11.999H9.14191C9.14191 20.8887 9.44101 21.6209 9.97672 22.16C10.5124 22.699 11.2401 23 11.999 23C12.7579 23 13.4856 22.699 14.0213 22.16Z" fill="black"/>
</svg>
