<svg width="11" height="11" viewBox="0 0 11 11" fill="none" xmlns="http://www.w3.org/2000/svg">
<g clip-path="url(#clip0_25_57)">
<path d="M5.5 0C8.3875 0 10.3125 0.75625 10.3125 1.71875V2.0625V2.75C10.6928 2.75 11 3.05723 11 3.4375V4.8125C11 5.19277 10.6928 5.5 10.3125 5.5V8.9375C10.3125 9.31777 10.0053 9.625 9.625 9.625V10.3125C9.625 10.6928 9.31777 11 8.9375 11H8.25C7.86973 11 7.5625 10.6928 7.5625 10.3125V9.625H3.4375V10.3125C3.4375 10.6928 3.13027 11 2.75 11H2.0625C1.68223 11 1.375 10.6928 1.375 10.3125V9.625C0.994727 9.625 0.6875 9.31777 0.6875 8.9375V5.5C0.307227 5.5 0 5.19277 0 4.8125V3.4375C0 3.05723 0.307227 2.75 0.6875 2.75V2.0625V1.71875C0.6875 0.75625 2.6125 0 5.5 0ZM2.0625 3.4375V5.5C2.0625 5.88027 2.36973 6.1875 2.75 6.1875H5.15625V2.75H2.75C2.36973 2.75 2.0625 3.05723 2.0625 3.4375ZM5.84375 6.1875H8.25C8.63027 6.1875 8.9375 5.88027 8.9375 5.5V3.4375C8.9375 3.05723 8.63027 2.75 8.25 2.75H5.84375V6.1875ZM2.40625 8.59375C2.78652 8.59375 3.09375 8.28652 3.09375 7.90625C3.09375 7.52598 2.78652 7.21875 2.40625 7.21875C2.02598 7.21875 1.71875 7.52598 1.71875 7.90625C1.71875 8.28652 2.02598 8.59375 2.40625 8.59375ZM8.59375 8.59375C8.97402 8.59375 9.28125 8.28652 9.28125 7.90625C9.28125 7.52598 8.97402 7.21875 8.59375 7.21875C8.21348 7.21875 7.90625 7.52598 7.90625 7.90625C7.90625 8.28652 8.21348 8.59375 8.59375 8.59375ZM7.5625 1.71875C7.5625 1.52969 7.40781 1.375 7.21875 1.375H3.78125C3.59219 1.375 3.4375 1.52969 3.4375 1.71875C3.4375 1.90781 3.59219 2.0625 3.78125 2.0625H7.21875C7.40781 2.0625 7.5625 1.90781 7.5625 1.71875Z" fill="black" fill-opacity="0.5"/>
</g>
<defs>
<clipPath id="clip0_25_57">
<rect width="11" height="11" fill="white"/>
</clipPath>
</defs>
</svg>
