<svg width="11" height="11" viewBox="0 0 11 11" fill="none" xmlns="http://www.w3.org/2000/svg">
<g clip-path="url(#clip0_28_21)">
<path d="M5.5 5.5C3.76406 5.5 2.35714 4.26895 2.35714 2.75C2.35714 1.23105 3.76406 0 5.5 0C7.23594 0 8.64286 1.23105 8.64286 2.75C8.64286 4.26895 7.23594 5.5 5.5 5.5ZM6.6221 6.53125C9.04062 6.53125 11 8.2457 11 10.3619C11 10.7143 10.6734 11 10.2708 11H0.729241C0.326563 11 0 10.7143 0 10.3619C0 8.2457 1.95937 6.53125 4.3779 6.53125H6.6221Z" fill="black" fill-opacity="0.5"/>
</g>
<defs>
<clipPath id="clip0_28_21">
<rect width="11" height="11" fill="white" transform="matrix(-1 0 0 1 11 0)"/>
</clipPath>
</defs>
</svg>
