<svg width="147" height="361" viewBox="0 0 147 361" fill="none" xmlns="http://www.w3.org/2000/svg">
<path d="M12.5721 1.5625V2.43555C16.1325 2.99756 18.8581 6.06445 18.8581 9.76562V11.3965C18.8581 13.6133 19.6193 15.7666 21.0091 17.5L21.7408 18.4082C22.0257 18.7598 22.0797 19.2432 21.8832 19.6484C21.6868 20.0537 21.2743 20.3125 20.8225 20.3125H1.17864C0.725357 20.3125 0.312591 20.0537 0.11635 19.6484C-0.0799414 19.2432 -0.0247422 18.7598 0.258325 18.4082L0.990549 17.5C2.38379 15.7666 3.14302 13.6133 3.14302 11.3965V9.76562C3.14302 6.06445 5.8686 2.99756 9.42905 2.43555V1.5625C9.42905 0.699707 10.1313 0 11.0006 0C11.8698 0 12.5721 0.699707 12.5721 1.5625ZM10.6077 4.6875C7.78879 4.6875 5.50028 6.96289 5.50028 9.76562V11.3965C5.50028 13.7354 4.81864 16.0156 3.55112 17.9688H18.4505C17.1834 16.0156 16.5008 13.7354 16.5008 11.3965V9.76562C16.5008 6.96289 14.2123 4.6875 11.3934 4.6875H10.6077ZM14.1436 21.875C14.1436 22.6611 13.8145 23.501 13.2252 24.0869C12.6359 24.6729 11.7912 25 11.0006 25C10.1657 25 9.3652 24.6729 8.77589 24.0869C8.18657 23.501 7.85754 22.6611 7.85754 21.875H14.1436Z" fill="black"/>
<path d="M12.5721 337.562V338.436C16.1325 338.998 18.8581 342.064 18.8581 345.766V347.396C18.8581 349.613 19.6193 351.767 21.0091 353.5L21.7408 354.408C22.0257 354.76 22.0797 355.243 21.8832 355.648C21.6868 356.054 21.2743 356.312 20.8225 356.312H1.17864C0.725357 356.312 0.312591 356.054 0.11635 355.648C-0.0799414 355.243 -0.0247422 354.76 0.258325 354.408L0.990549 353.5C2.38379 351.767 3.14302 349.613 3.14302 347.396V345.766C3.14302 342.064 5.8686 338.998 9.42905 338.436V337.562C9.42905 336.7 10.1313 336 11.0006 336C11.8698 336 12.5721 336.7 12.5721 337.562ZM10.6077 340.688C7.78879 340.688 5.50028 342.963 5.50028 345.766V347.396C5.50028 349.735 4.81864 352.016 3.55112 353.969H18.4505C17.1834 352.016 16.5008 349.735 16.5008 347.396V345.766C16.5008 342.963 14.2123 340.688 11.3934 340.688H10.6077ZM14.1436 357.875C14.1436 358.661 13.8145 359.501 13.2252 360.087C12.6359 360.673 11.7912 361 11.0006 361C10.1657 361 9.3652 360.673 8.77589 360.087C8.18657 359.501 7.85754 358.661 7.85754 357.875H14.1436Z" fill="black"/>
<path d="M12.5721 254.562V255.436C16.1325 255.998 18.8581 259.064 18.8581 262.766V264.396C18.8581 266.613 19.6193 268.767 21.0091 270.5L21.7408 271.408C22.0257 271.76 22.0797 272.243 21.8832 272.648C21.6868 273.054 21.2743 273.312 20.8225 273.312H1.17864C0.725357 273.312 0.312591 273.054 0.11635 272.648C-0.0799414 272.243 -0.0247422 271.76 0.258325 271.408L0.990549 270.5C2.38379 268.767 3.14302 266.613 3.14302 264.396V262.766C3.14302 259.064 5.8686 255.998 9.42905 255.436V254.562C9.42905 253.7 10.1313 253 11.0006 253C11.8698 253 12.5721 253.7 12.5721 254.562ZM10.6077 257.688C7.78879 257.688 5.50028 259.963 5.50028 262.766V264.396C5.50028 266.735 4.81864 269.016 3.55112 270.969H18.4505C17.1834 269.016 16.5008 266.735 16.5008 264.396V262.766C16.5008 259.963 14.2123 257.688 11.3934 257.688H10.6077ZM14.1436 274.875C14.1436 275.661 13.8145 276.501 13.2252 277.087C12.6359 277.673 11.7912 278 11.0006 278C10.1657 278 9.3652 277.673 8.77589 277.087C8.18657 276.501 7.85754 275.661 7.85754 274.875H14.1436Z" fill="black"/>
<path d="M12.5721 169.562V170.436C16.1325 170.998 18.8581 174.064 18.8581 177.766V179.396C18.8581 181.613 19.6193 183.767 21.0091 185.5L21.7408 186.408C22.0257 186.76 22.0797 187.243 21.8832 187.648C21.6868 188.054 21.2743 188.312 20.8225 188.312H1.17864C0.725357 188.312 0.312591 188.054 0.11635 187.648C-0.0799414 187.243 -0.0247422 186.76 0.258325 186.408L0.990549 185.5C2.38379 183.767 3.14302 181.613 3.14302 179.396V177.766C3.14302 174.064 5.8686 170.998 9.42905 170.436V169.562C9.42905 168.7 10.1313 168 11.0006 168C11.8698 168 12.5721 168.7 12.5721 169.562ZM10.6077 172.688C7.78879 172.688 5.50028 174.963 5.50028 177.766V179.396C5.50028 181.735 4.81864 184.016 3.55112 185.969H18.4505C17.1834 184.016 16.5008 181.735 16.5008 179.396V177.766C16.5008 174.963 14.2123 172.688 11.3934 172.688H10.6077ZM14.1436 189.875C14.1436 190.661 13.8145 191.501 13.2252 192.087C12.6359 192.673 11.7912 193 11.0006 193C10.1657 193 9.3652 192.673 8.77589 192.087C8.18657 191.501 7.85754 190.661 7.85754 189.875H14.1436Z" fill="black"/>
<path d="M12.5721 85.5625V86.4355C16.1325 86.9976 18.8581 90.0645 18.8581 93.7656V95.3965C18.8581 97.6133 19.6193 99.7666 21.0091 101.5L21.7408 102.408C22.0257 102.76 22.0797 103.243 21.8832 103.648C21.6868 104.054 21.2743 104.312 20.8225 104.312H1.17864C0.725357 104.312 0.312591 104.054 0.11635 103.648C-0.0799414 103.243 -0.0247422 102.76 0.258325 102.408L0.990549 101.5C2.38379 99.7666 3.14302 97.6133 3.14302 95.3965V93.7656C3.14302 90.0645 5.8686 86.9976 9.42905 86.4355V85.5625C9.42905 84.6997 10.1313 84 11.0006 84C11.8698 84 12.5721 84.6997 12.5721 85.5625ZM10.6077 88.6875C7.78879 88.6875 5.50028 90.9629 5.50028 93.7656V95.3965C5.50028 97.7354 4.81864 100.016 3.55112 101.969H18.4505C17.1834 100.016 16.5008 97.7354 16.5008 95.3965V93.7656C16.5008 90.9629 14.2123 88.6875 11.3934 88.6875H10.6077ZM14.1436 105.875C14.1436 106.661 13.8145 107.501 13.2252 108.087C12.6359 108.673 11.7912 109 11.0006 109C10.1657 109 9.3652 108.673 8.77589 108.087C8.18657 107.501 7.85754 106.661 7.85754 105.875H14.1436Z" fill="black"/>
<path d="M127.572 1.5625V2.43555C131.133 2.99756 133.858 6.06445 133.858 9.76562V11.3965C133.858 13.6133 134.619 15.7666 136.009 17.5L136.741 18.4082C137.026 18.7598 137.08 19.2432 136.883 19.6484C136.687 20.0537 136.274 20.3125 135.822 20.3125H116.179C115.725 20.3125 115.313 20.0537 115.116 19.6484C114.92 19.2432 114.975 18.7598 115.258 18.4082L115.991 17.5C117.384 15.7666 118.143 13.6133 118.143 11.3965V9.76562C118.143 6.06445 120.869 2.99756 124.429 2.43555V1.5625C124.429 0.699707 125.131 0 126.001 0C126.87 0 127.572 0.699707 127.572 1.5625ZM125.608 4.6875C122.789 4.6875 120.5 6.96289 120.5 9.76562V11.3965C120.5 13.7354 119.819 16.0156 118.551 17.9688H133.45C132.183 16.0156 131.501 13.7354 131.501 11.3965V9.76562C131.501 6.96289 129.212 4.6875 126.393 4.6875H125.608ZM129.144 21.875C129.144 22.6611 128.815 23.501 128.225 24.0869C127.636 24.6729 126.791 25 126.001 25C125.166 25 124.365 24.6729 123.776 24.0869C123.187 23.501 122.858 22.6611 122.858 21.875H129.144Z" fill="black"/>
<path d="M127.572 337.562V338.436C131.133 338.998 133.858 342.064 133.858 345.766V347.396C133.858 349.613 134.619 351.767 136.009 353.5L136.741 354.408C137.026 354.76 137.08 355.243 136.883 355.648C136.687 356.054 136.274 356.312 135.822 356.312H116.179C115.725 356.312 115.313 356.054 115.116 355.648C114.92 355.243 114.975 354.76 115.258 354.408L115.991 353.5C117.384 351.767 118.143 349.613 118.143 347.396V345.766C118.143 342.064 120.869 338.998 124.429 338.436V337.562C124.429 336.7 125.131 336 126.001 336C126.87 336 127.572 336.7 127.572 337.562ZM125.608 340.688C122.789 340.688 120.5 342.963 120.5 345.766V347.396C120.5 349.735 119.819 352.016 118.551 353.969H133.45C132.183 352.016 131.501 349.735 131.501 347.396V345.766C131.501 342.963 129.212 340.688 126.393 340.688H125.608ZM129.144 357.875C129.144 358.661 128.815 359.501 128.225 360.087C127.636 360.673 126.791 361 126.001 361C125.166 361 124.365 360.673 123.776 360.087C123.187 359.501 122.858 358.661 122.858 357.875H129.144Z" fill="black"/>
<path d="M127.572 254.562V255.436C131.133 255.998 133.858 259.064 133.858 262.766V264.396C133.858 266.613 134.619 268.767 136.009 270.5L136.741 271.408C137.026 271.76 137.08 272.243 136.883 272.648C136.687 273.054 136.274 273.312 135.822 273.312H116.179C115.725 273.312 115.313 273.054 115.116 272.648C114.92 272.243 114.975 271.76 115.258 271.408L115.991 270.5C117.384 268.767 118.143 266.613 118.143 264.396V262.766C118.143 259.064 120.869 255.998 124.429 255.436V254.562C124.429 253.7 125.131 253 126.001 253C126.87 253 127.572 253.7 127.572 254.562ZM125.608 257.688C122.789 257.688 120.5 259.963 120.5 262.766V264.396C120.5 266.735 119.819 269.016 118.551 270.969H133.45C132.183 269.016 131.501 266.735 131.501 264.396V262.766C131.501 259.963 129.212 257.688 126.393 257.688H125.608ZM129.144 274.875C129.144 275.661 128.815 276.501 128.225 277.087C127.636 277.673 126.791 278 126.001 278C125.166 278 124.365 277.673 123.776 277.087C123.187 276.501 122.858 275.661 122.858 274.875H129.144Z" fill="black"/>
<path d="M127.572 169.562V170.436C131.133 170.998 133.858 174.064 133.858 177.766V179.396C133.858 181.613 134.619 183.767 136.009 185.5L136.741 186.408C137.026 186.76 137.08 187.243 136.883 187.648C136.687 188.054 136.274 188.312 135.822 188.312H116.179C115.725 188.312 115.313 188.054 115.116 187.648C114.92 187.243 114.975 186.76 115.258 186.408L115.991 185.5C117.384 183.767 118.143 181.613 118.143 179.396V177.766C118.143 174.064 120.869 170.998 124.429 170.436V169.562C124.429 168.7 125.131 168 126.001 168C126.87 168 127.572 168.7 127.572 169.562ZM125.608 172.688C122.789 172.688 120.5 174.963 120.5 177.766V179.396C120.5 181.735 119.819 184.016 118.551 185.969H133.45C132.183 184.016 131.501 181.735 131.501 179.396V177.766C131.501 174.963 129.212 172.688 126.393 172.688H125.608ZM129.144 189.875C129.144 190.661 128.815 191.501 128.225 192.087C127.636 192.673 126.791 193 126.001 193C125.166 193 124.365 192.673 123.776 192.087C123.187 191.501 122.858 190.661 122.858 189.875H129.144Z" fill="black"/>
<path d="M127.572 85.5625V86.4355C131.133 86.9976 133.858 90.0645 133.858 93.7656V95.3965C133.858 97.6133 134.619 99.7666 136.009 101.5L136.741 102.408C137.026 102.76 137.08 103.243 136.883 103.648C136.687 104.054 136.274 104.312 135.822 104.312H116.179C115.725 104.312 115.313 104.054 115.116 103.648C114.92 103.243 114.975 102.76 115.258 102.408L115.991 101.5C117.384 99.7666 118.143 97.6133 118.143 95.3965V93.7656C118.143 90.0645 120.869 86.9976 124.429 86.4355V85.5625C124.429 84.6997 125.131 84 126.001 84C126.87 84 127.572 84.6997 127.572 85.5625ZM125.608 88.6875C122.789 88.6875 120.5 90.9629 120.5 93.7656V95.3965C120.5 97.7354 119.819 100.016 118.551 101.969H133.45C132.183 100.016 131.501 97.7354 131.501 95.3965V93.7656C131.501 90.9629 129.212 88.6875 126.393 88.6875H125.608ZM129.144 105.875C129.144 106.661 128.815 107.501 128.225 108.087C127.636 108.673 126.791 109 126.001 109C125.166 109 124.365 108.673 123.776 108.087C123.187 107.501 122.858 106.661 122.858 105.875H129.144Z" fill="black"/>
</svg>
